<?xml version="1.0" encoding="iso-8859-1"?>
<!-- Generator: Adobe Illustrator 19.0.0, SVG Export Plug-In . SVG Version: 6.00 Build 0)  -->
<svg version="1.1" id="Capa_1" xmlns="http://www.w3.org/2000/svg" xmlns:xlink="http://www.w3.org/1999/xlink" x="0px" y="0px"
	 viewBox="0 0 491.2 491.2" style="enable-background:new 0 0 491.2 491.2;" xml:space="preserve">
<g>
	<g>
		<path d="M491.2,245.6c0-37.5-25-68.7-59.3-77c17.7-31.2,13.5-70.7-12.5-96.8c-15.6-14.6-35.4-22.9-56.2-22.9
			c-14.6,0-28.1,4.2-40.6,11.4C313.2,26,282,1,245.6,1c-37.5,0-68.7,25-77,59.3c-12.5-7.3-26-11.4-40.6-11.4
			c-21.8,0-41.6,8.3-56.2,22.9c-27,26-30.2,66.6-12.5,96.8C25,178,0,209.2,0,245.6c0,37.5,25,68.7,59.3,77
			c-18.7,31.2-14.6,70.7,11.4,96.8c15.6,14.6,35.4,22.9,56.2,22.9c14.6,0,28.1-4.2,40.6-11.4c9.4,34.3,40.6,59.3,77,59.3
			s67.6-25,79.1-59.3c12.5,7.3,26,11.4,40.6,11.4c21.8,0,41.6-8.3,56.2-22.9c26-26,29.1-66.6,11.4-96.8
			C466.3,313.2,491.2,282,491.2,245.6z M410.1,284.1h-23.9c-22.3,1.8-24.9,25.2-14.6,34.3l16.6,15.6c14.6,14.6,14.6,39.5,0,54.1
			s-39.5,14.6-54.1,0l-16.6-16.6c-15.7-12.7-33.5-2.2-34.3,14.6V410c0,21.8-16.6,38.5-38.5,38.5c-21.8,0-38.5-17.7-38.5-38.5v-23.9
			c-0.5-17.3-19.8-26.8-34.3-13.5l-16.6,16.6c-14.6,14.6-39.5,14.6-54.1,0c-14.6-14.6-14.6-39.5,0-54.1l16.6-16.6
			c11.5-13,4.1-33.3-14.6-34.3h-24c-21.8,0-38.5-17.7-38.5-38.5c0-21.8,17.7-38.5,38.5-38.5h23.9c17.5-1.3,27.4-20.3,14.6-34.3
			l-16.6-16.6c-14.6-14.6-14.6-39.5,0-54.1c14.6-14.6,39.5-14.6,54.1,0l16.6,16.6c13.9,12.2,33.4,3.8,34.3-14.6v-24
			c0-21.8,16.6-38.5,38.5-38.5c21.8,0,38.5,17.7,38.5,38.5v23.9c-0.8,11.4,16.6,31,34.3,14.6l16.6-16.6c14.6-14.6,39.5-14.6,54.1,0
			c14.6,14.6,14.6,39.5,0,54.1l-16.6,16.6c-11.3,12.2-5,33.6,14.6,34.3H410c21.8,0,38.5,17.7,38.5,38.5
			C448.6,267.4,430.9,284.1,410.1,284.1z"/>
		<circle cx="245.7" cy="245.6" r="21.3"/>
	</g>
</g>
<g>
</g>
<g>
</g>
<g>
</g>
<g>
</g>
<g>
</g>
<g>
</g>
<g>
</g>
<g>
</g>
<g>
</g>
<g>
</g>
<g>
</g>
<g>
</g>
<g>
</g>
<g>
</g>
<g>
</g>
</svg>
